<svg width="26" height="20" viewBox="0 0 26 20" fill="none" xmlns="http://www.w3.org/2000/svg">
<g clip-path="url(#clip0_1_189)">
<path d="M5.03113 19.4584V18.1974C5.03113 17.7151 4.73089 17.3992 4.21548 17.3992C3.95777 17.3992 3.67755 17.4825 3.48489 17.7567C3.33477 17.5265 3.1196 17.3992 2.79684 17.3992C2.58167 17.3992 2.3665 17.4629 2.19636 17.693V17.4408H1.746V19.4584H2.19636V18.3443C2.19636 17.9868 2.38902 17.8179 2.68926 17.8179C2.9895 17.8179 3.13962 18.0064 3.13962 18.3443V19.4584H3.58998V18.3443C3.58998 17.9868 3.80515 17.8179 4.08287 17.8179C4.38311 17.8179 4.53323 18.0064 4.53323 18.3443V19.4584H5.03113ZM11.7115 17.4408H10.9809V16.8312H10.5305V17.4408H10.1227V17.8399H10.5305V18.7654C10.5305 19.2282 10.7232 19.5 11.2386 19.5C11.4313 19.5 11.6464 19.4363 11.7965 19.3531L11.6664 18.9736C11.5363 19.0568 11.3862 19.0789 11.2786 19.0789C11.0635 19.0789 10.9784 18.9515 10.9784 18.7434V17.8399H11.709V17.4408H11.7115ZM15.5345 17.3968C15.2768 17.3968 15.1042 17.5241 14.9966 17.6906V17.4384H14.5462V19.4559H14.9966V18.3198C14.9966 17.9844 15.1467 17.7934 15.4269 17.7934C15.512 17.7934 15.6196 17.8154 15.7072 17.835L15.8373 17.4139C15.7472 17.3968 15.6196 17.3968 15.5345 17.3968ZM9.75741 17.6073C9.54224 17.4604 9.242 17.3968 8.91924 17.3968C8.40383 17.3968 8.06105 17.649 8.06105 18.0481C8.06105 18.3835 8.31876 18.5745 8.76912 18.6357L8.98429 18.6577C9.21948 18.6993 9.34959 18.763 9.34959 18.8683C9.34959 19.0152 9.17695 19.1205 8.87671 19.1205C8.57647 19.1205 8.33878 19.0152 8.18866 18.9099L7.97348 19.2453C8.20867 19.4143 8.53143 19.4975 8.85419 19.4975C9.45467 19.4975 9.79995 19.2233 9.79995 18.8462C9.79995 18.4888 9.51972 18.3002 9.09188 18.2366L8.87671 18.2145C8.68405 18.1925 8.53393 18.1509 8.53393 18.026C8.53393 17.8791 8.68405 17.7959 8.92174 17.7959C9.17945 17.7959 9.43716 17.9011 9.56726 17.9648L9.75741 17.6073ZM21.7395 17.3968C21.4818 17.3968 21.3092 17.5241 21.2016 17.6906V17.4384H20.7512V19.4559H21.2016V18.3198C21.2016 17.9844 21.3517 17.7934 21.6319 17.7934C21.717 17.7934 21.8246 17.8154 21.9121 17.835L22.0422 17.4188C21.9547 17.3968 21.8271 17.3968 21.7395 17.3968ZM15.9849 18.4496C15.9849 19.0593 16.4152 19.5 17.0808 19.5C17.381 19.5 17.5962 19.4363 17.8114 19.2698L17.5962 18.9124C17.4235 19.0397 17.2534 19.1009 17.0583 19.1009C16.693 19.1009 16.4353 18.8487 16.4353 18.4496C16.4353 18.0701 16.693 17.8179 17.0583 17.7983C17.2509 17.7983 17.4235 17.862 17.5962 17.9868L17.8114 17.6294C17.5962 17.4604 17.381 17.3992 17.0808 17.3992C16.4152 17.3968 15.9849 17.8399 15.9849 18.4496ZM20.1507 18.4496V17.4408H19.7004V17.693C19.5502 17.5045 19.3351 17.3992 19.0548 17.3992C18.4744 17.3992 18.024 17.8399 18.024 18.4496C18.024 19.0593 18.4744 19.5 19.0548 19.5C19.3551 19.5 19.5703 19.3947 19.7004 19.2062V19.4584H20.1507V18.4496ZM18.4969 18.4496C18.4969 18.0921 18.7321 17.7983 19.1199 17.7983C19.4852 17.7983 19.7429 18.0725 19.7429 18.4496C19.7429 18.8071 19.4852 19.1009 19.1199 19.1009C18.7346 19.0789 18.4969 18.8046 18.4969 18.4496ZM13.1076 17.3968C12.5071 17.3968 12.0768 17.8179 12.0768 18.4471C12.0768 19.0789 12.5071 19.4975 13.1301 19.4975C13.4304 19.4975 13.7306 19.4143 13.9683 19.2233L13.7531 18.9075C13.5805 19.0348 13.3653 19.118 13.1526 19.118C12.8724 19.118 12.5947 18.9907 12.5296 18.6357H14.0533C14.0533 18.572 14.0533 18.5304 14.0533 18.4667C14.0734 17.8179 13.6856 17.3968 13.1076 17.3968ZM13.1076 17.7763C13.3878 17.7763 13.5805 17.9452 13.623 18.2586H12.5496C12.5922 17.9868 12.7848 17.7763 13.1076 17.7763ZM24.2965 18.4496V16.6426H23.8462V17.693C23.6961 17.5045 23.4809 17.3992 23.2007 17.3992C22.6202 17.3992 22.1698 17.8399 22.1698 18.4496C22.1698 19.0593 22.6202 19.5 23.2007 19.5C23.5009 19.5 23.7161 19.3947 23.8462 19.2062V19.4584H24.2965V18.4496ZM22.6427 18.4496C22.6427 18.0921 22.8779 17.7983 23.2657 17.7983C23.631 17.7983 23.8887 18.0725 23.8887 18.4496C23.8887 18.8071 23.631 19.1009 23.2657 19.1009C22.8779 19.0789 22.6427 18.8046 22.6427 18.4496ZM7.56566 18.4496V17.4408H7.1153V17.693C6.96518 17.5045 6.75001 17.3992 6.46978 17.3992C5.88932 17.3992 5.43896 17.8399 5.43896 18.4496C5.43896 19.0593 5.88932 19.5 6.46978 19.5C6.77002 19.5 6.98519 19.3947 7.1153 19.2062V19.4584H7.56566V18.4496ZM5.89182 18.4496C5.89182 18.0921 6.12701 17.7983 6.51482 17.7983C6.88011 17.7983 7.13782 18.0725 7.13782 18.4496C7.13782 18.8071 6.88011 19.1009 6.51482 19.1009C6.12701 19.0789 5.89182 18.8046 5.89182 18.4496Z" fill="black"/>
<path d="M16.3727 2.11841H9.6073V14.013H16.3727V2.11841Z" fill="#FF5A00"/>
<path d="M10.0576 8.06572C10.0576 5.6491 11.2186 3.50425 13 2.11843C11.689 1.10966 10.0351 0.5 8.23118 0.5C3.95777 0.5 0.5 3.88376 0.5 8.06572C0.5 12.2477 3.95777 15.6314 8.23118 15.6314C10.0351 15.6314 11.689 15.0218 13 14.013C11.2161 12.6468 10.0576 10.4823 10.0576 8.06572Z" fill="#EB001B"/>
<path d="M25.5 8.06572C25.5 12.2477 22.0422 15.6314 17.7688 15.6314C15.9649 15.6314 14.311 15.0218 13 14.013C14.8039 12.6247 15.9424 10.4823 15.9424 8.06572C15.9424 5.6491 14.7814 3.50425 13 2.11843C14.3085 1.10966 15.9624 0.5 17.7663 0.5C22.0422 0.5 25.5 3.9058 25.5 8.06572Z" fill="#F79E1B"/>
</g>
<defs>
<clipPath id="clip0_1_189">
<rect width="25" height="19" fill="white" transform="translate(0.5 0.5)"/>
</clipPath>
</defs>
</svg>
