<svg width="27" height="27" viewBox="0 0 27 27" fill="none" xmlns="http://www.w3.org/2000/svg">
<path d="M22.7802 25.2785C22.7802 23.5145 22.7802 22.6326 22.57 21.9149C22.0967 20.2991 20.8758 19.0346 19.3157 18.5444C18.6228 18.3267 17.7712 18.3267 16.0681 18.3267H9.96632C8.26322 18.3267 7.41167 18.3267 6.71875 18.5444C5.15863 19.0346 3.93776 20.2991 3.4645 21.9149C3.2543 22.6326 3.2543 23.5145 3.2543 25.2785M18.5089 8.21512C18.5089 11.3564 16.0502 13.9029 13.0172 13.9029C9.98428 13.9029 7.52559 11.3564 7.52559 8.21512C7.52559 5.07385 9.98428 2.52734 13.0172 2.52734C16.0502 2.52734 18.5089 5.07385 18.5089 8.21512Z" stroke="black" stroke-width="2" stroke-linecap="round" stroke-linejoin="round"/>
</svg>
